<?xml version="1.0" encoding="UTF-8" standalone="no"?>
<!-- Created with Inkscape (http://www.inkscape.org/) -->

<svg
   width="415.42578mm"
   height="255.77353mm"
   viewBox="0 0 415.42578 255.77353"
   version="1.1"
   id="svg5"
   inkscape:version="1.1.2 (0a00cf5339, 2022-02-04, custom)"
   sodipodi:docname="motion-dia.svg"
   xmlns:inkscape="http://www.inkscape.org/namespaces/inkscape"
   xmlns:sodipodi="http://sodipodi.sourceforge.net/DTD/sodipodi-0.dtd"
   xmlns="http://www.w3.org/2000/svg"
   xmlns:svg="http://www.w3.org/2000/svg">
  <sodipodi:namedview
     id="namedview7"
     pagecolor="#505050"
     bordercolor="#eeeeee"
     borderopacity="1"
     inkscape:pageshadow="0"
     inkscape:pageopacity="0"
     inkscape:pagecheckerboard="0"
     inkscape:document-units="mm"
     showgrid="false"
     inkscape:zoom="0.77058782"
     inkscape:cx="759.80957"
     inkscape:cy="458.09185"
     inkscape:window-width="1920"
     inkscape:window-height="1051"
     inkscape:window-x="0"
     inkscape:window-y="0"
     inkscape:window-maximized="1"
     inkscape:current-layer="layer1" />
  <defs
     id="defs2" />
  <g
     inkscape:label="Layer 1"
     inkscape:groupmode="layer"
     id="layer1"
     transform="translate(95.995529,-37.161121)">
    <rect
       style="fill:#ffffff;stroke-width:11.865"
       id="rect2147"
       width="415.42578"
       height="255.77353"
       x="-95.995529"
       y="37.161121" />
    <rect
       style="fill:#000000;stroke-width:11.865"
       id="rect912"
       width="182.17638"
       height="107.43671"
       x="64.543457"
       y="74.575142" />
    <rect
       style="fill:#ffff00;stroke-width:8.74687"
       id="rect1304"
       width="21.820011"
       height="3.1266482"
       x="130.26555"
       y="126.9498" />
    <rect
       style="fill:#ffff00;stroke-width:8.15233"
       id="rect1306"
       width="4.165225"
       height="20.195427"
       x="138.59764"
       y="117.8918" />
    <rect
       style="fill:#00ff00;stroke-width:12.7191"
       id="rect1727"
       width="73.059868"
       height="51.927383"
       x="114.4416"
       y="234.21294"
       transform="matrix(1,0,-0.49269734,0.87020074,0,0)" />
    <path
       style="fill:#0000ff;stroke-width:11.865"
       id="path2009"
       d="m 12.767901,223.27554 c -1.015601,1.4747 -1.405565,3.299 -1.83156,5.00932 -0.585195,2.34949 -0.503193,2.08965 -0.9901671,4.51886 -0.7787158,4.75274 -1.0634374,9.5694 -1.2512021,14.37645 -0.1321639,2.00428 -0.1579192,3.87851 0.7860789,5.71232 0.5443053,1.05736 0.9751153,1.47587 1.7280973,2.3835 1.580539,1.67315 3.68431,2.63397 5.689496,3.68522 0.379119,0.15067 0.672718,0.48498 1.049743,0.63844 1.357533,0.55254 2.64942,-1.33449 3.737009,-2.317 0.18753,-0.16942 0.01515,-0.50522 0.02272,-0.75783 0.0408,-2.5079 0.01434,-5.01621 0.01606,-7.52429 0.01817,-0.3561 0.03635,-0.7122 0.05452,-1.0683 0,0 -3.437054,1.73558 -3.437054,1.73558 v 0 c -0.0077,0.35653 -0.01541,0.71305 -0.02311,1.06958 0.02034,2.50742 0.0563,5.02004 -0.100587,7.52373 -0.03896,0.23029 -0.337582,0.76729 -0.116878,0.69087 1.159442,-0.40147 2.122992,-1.23577 3.228402,-1.76827 0.07676,-0.037 0.01048,0.21482 -0.06873,0.2462 -0.0976,0.0387 -1.001159,-0.59735 -1.102362,-0.61148 -2.008061,-0.97851 -4.10989,-1.8633 -5.694158,-3.49668 -0.745097,-0.89086 -1.127927,-1.2445 -1.65646,-2.2871 -0.879858,-1.73565 -0.859673,-3.64122 -0.784975,-5.53634 0.127232,-4.78189 0.351078,-9.57852 1.22324,-14.29247 0.458651,-2.17375 0.474412,-2.41217 1.051869,-4.52072 0.475023,-1.73451 0.961496,-3.54685 2.101163,-4.98013 0,0 -3.631145,1.57054 -3.631145,1.57054 z" />
    <path
       style="fill:#0000ff;stroke-width:11.865"
       id="path2011"
       d="m 20.448644,256.76576 c -1.96194,0.0305 -3.924266,0.0312 -5.886409,0.033 -1.476762,0.004 -2.953467,-0.012 -4.430024,0.0139 0,0 -3.1223098,2.28282 -3.1223098,2.28282 v 0 c 1.482858,-0.0627 2.9660307,-0.042 4.4500268,-0.0427 1.931879,0.002 3.863958,0.002 5.795625,0.033 0,0 3.193091,-2.31992 3.193091,-2.31992 z" />
    <path
       style="fill:#0000ff;stroke-width:11.865"
       id="path2019"
       d="m 156.54225,129.43637 c 0.13589,1.23294 0.46178,2.41459 0.78171,3.6093 0.45331,1.83124 0.60971,3.7097 0.70087,5.58772 0.062,1.63083 0.052,3.26315 0.0277,4.8946 -0.0187,0.85027 -0.01,1.70074 -0.0137,2.55114 0.0843,1.81772 1.75401,0.81455 2.68393,0.34119 2.80856,-1.57074 5.58097,-3.22161 8.23656,-5.04204 0.62484,-0.47259 1.16343,-1.04127 1.76017,-1.54594 0,0 -3.63834,1.47825 -3.63834,1.47825 v 0 c -0.56844,0.51211 -1.11751,1.04919 -1.74603,1.48964 -1.00635,0.67921 -2.02589,1.34279 -3.05419,1.98831 -0.31139,0.19547 -1.26454,0.75002 -0.94125,0.57495 0.80801,-0.43754 1.59746,-0.90853 2.39618,-1.3628 -0.27918,0.15072 -0.55702,0.30396 -0.83756,0.45215 -0.60953,0.32197 -1.34351,0.95649 -1.34851,-0.16186 -7.9e-4,-0.84835 0.0134,-1.69666 8e-4,-2.54496 -0.0215,-1.62698 -0.0465,-3.25401 -0.0953,-4.88043 -0.0829,-1.90863 -0.27506,-3.80596 -0.72074,-5.66865 -0.30324,-1.19725 -0.58129,-2.391 -0.69653,-3.62384 0,0 -3.49578,1.86327 -3.49578,1.86327 z" />
    <path
       style="fill:#0000ff;stroke-width:11.865"
       id="path2021"
       d="m 160.32712,144.12169 c -1.64437,-1.25526 -3.28582,-2.50962 -4.95764,-3.72991 0,0 -3.2227,2.04709 -3.2227,2.04709 v 0 c 1.68049,1.19389 3.32728,2.41646 4.86142,3.79723 0,0 3.31892,-2.11441 3.31892,-2.11441 z" />
    <text
       xml:space="preserve"
       style="font-style:normal;font-weight:normal;font-size:10.5833px;line-height:1.25;font-family:sans-serif;fill:#000000;fill-opacity:1;stroke:none;stroke-width:0.264583"
       x="73.716782"
       y="231.20557"
       id="text4845"><tspan
         sodipodi:role="line"
         id="tspan4843"
         style="stroke-width:0.264583"
         x="73.716782"
         y="231.20557">DS5 with 6axis enabled</tspan></text>
    <text
       xml:space="preserve"
       style="font-style:normal;font-weight:normal;font-size:10.5833px;line-height:1.25;font-family:sans-serif;fill:#000000;fill-opacity:1;stroke:none;stroke-width:0.264583"
       x="-46.285713"
       y="137.65691"
       id="text7489"><tspan
         sodipodi:role="line"
         style="stroke-width:0.264583"
         x="-46.285713"
         y="137.65691"
         id="tspan8141">display with a cursor</tspan></text>
  </g>
</svg>
