<svg xmlns="http://www.w3.org/2000/svg" width="1034.296" height="539.189" viewBox="0 0 1034.296 539.189">
  <g id="switchpro_switch" transform="translate(-4535.351 -131.811)">
    <path id="路径_5279" data-name="路径 5279" d="M2.28,0H3.6a.481.481,0,0,0,.48-.48v-6a.227.227,0,0,1,.24-.24H5.784a.469.469,0,0,1,.456.288L9.12-.384A.621.621,0,0,0,9.7,0H11.16a.429.429,0,0,0,.48-.432.818.818,0,0,0-.1-.384L8.76-6.48a.885.885,0,0,1-.12-.408c0-.216.192-.384.5-.576a4.746,4.746,0,0,0,2.5-4.3A4.893,4.893,0,0,0,6.6-16.8H2.28a.481.481,0,0,0-.48.48V-.48A.481.481,0,0,0,2.28,0ZM4.32-9a.227.227,0,0,1-.24-.24v-5.04a.227.227,0,0,1,.24-.24H6.6a2.6,2.6,0,0,1,2.688,2.76A2.6,2.6,0,0,1,6.6-9ZM18.624.24a4.956,4.956,0,0,0,5.04-5.064,4.2,4.2,0,0,0-1.9-3.72c-.216-.144-.216-.36.024-.576A4.231,4.231,0,0,0,23.3-12.408a4.371,4.371,0,0,0-4.632-4.632,4.422,4.422,0,0,0-4.728,4.392v.6a.481.481,0,0,0,.48.48h1.3a.481.481,0,0,0,.48-.48v-.36a2.356,2.356,0,0,1,2.472-2.472,2.228,2.228,0,0,1,2.352,2.472,2.352,2.352,0,0,1-2.4,2.52h-.48a.481.481,0,0,0-.48.48v1.272a.481.481,0,0,0,.48.48h.48a2.627,2.627,0,0,1,2.76,2.832,2.685,2.685,0,0,1-2.76,2.9A2.684,2.684,0,0,1,15.84-4.752V-4.92a.481.481,0,0,0-.48-.48H14.04a.481.481,0,0,0-.48.48v.408A4.883,4.883,0,0,0,18.624.24Z" transform="translate(5502.154 628.454)" fill="#747474"/>
    <path id="路径_5280" data-name="路径 5280" d="M1.44,0h8.928a.481.481,0,0,0,.48-.48V-1.752a.481.481,0,0,0-.48-.48h-6.7c-.168,0-.216-.12-.144-.24l7.08-11.736a.725.725,0,0,0,.12-.384V-16.32a.481.481,0,0,0-.48-.48H1.32a.481.481,0,0,0-.48.48v1.248a.481.481,0,0,0,.48.48H8.112c.168,0,.216.12.144.24L1.08-2.664a.725.725,0,0,0-.12.384v1.8A.481.481,0,0,0,1.44,0ZM13.968,0h1.32a.481.481,0,0,0,.48-.48v-6a.227.227,0,0,1,.24-.24h1.464a.469.469,0,0,1,.456.288l2.88,6.048A.621.621,0,0,0,21.384,0h1.464a.429.429,0,0,0,.48-.432.818.818,0,0,0-.1-.384L20.448-6.48a.885.885,0,0,1-.12-.408c0-.216.192-.384.5-.576a4.746,4.746,0,0,0,2.5-4.3,4.893,4.893,0,0,0-5.04-5.04h-4.32a.481.481,0,0,0-.48.48V-.48A.481.481,0,0,0,13.968,0Zm2.04-9a.227.227,0,0,1-.24-.24v-5.04a.227.227,0,0,1,.24-.24h2.28a2.6,2.6,0,0,1,2.688,2.76A2.6,2.6,0,0,1,18.288-9Z" transform="translate(5501.239 148.61)" fill="#747474"/>
    <path id="路径_5281" data-name="路径 5281" d="M2.28,0H3.6a.481.481,0,0,0,.48-.48v-6a.227.227,0,0,1,.24-.24H5.784a.469.469,0,0,1,.456.288L9.12-.384A.621.621,0,0,0,9.7,0H11.16a.429.429,0,0,0,.48-.432.818.818,0,0,0-.1-.384L8.76-6.48a.885.885,0,0,1-.12-.408c0-.216.192-.384.5-.576a4.746,4.746,0,0,0,2.5-4.3A4.893,4.893,0,0,0,6.6-16.8H2.28a.481.481,0,0,0-.48.48V-.48A.481.481,0,0,0,2.28,0ZM4.32-9a.227.227,0,0,1-.24-.24v-5.04a.227.227,0,0,1,.24-.24H6.6a2.6,2.6,0,0,1,2.688,2.76A2.6,2.6,0,0,1,6.6-9Z" transform="translate(5502.724 216.942)" fill="#747474"/>
    <path id="路径_5282" data-name="路径 5282" d="M.792,0H2.424c.216,0,.312-.072.456-.36L5.76-6.168c.1-.192.144-.24.192-.24s.1.048.192.24L9.048-.36c.144.288.24.36.456.36h1.632a.416.416,0,0,0,.432-.432.758.758,0,0,0-.12-.384l-4.032-7.8a.861.861,0,0,1-.1-.264A.553.553,0,0,1,7.392-9.1l3.672-6.888a.885.885,0,0,0,.12-.408.426.426,0,0,0-.432-.408H9.216c-.216,0-.312.072-.456.36L6.12-11.328c-.048.1-.12.192-.168.192s-.12-.1-.168-.192L3.144-16.44c-.144-.288-.24-.36-.456-.36H1.152a.426.426,0,0,0-.432.408.9.9,0,0,0,.12.408L4.512-9.1a.553.553,0,0,1,.072.216.692.692,0,0,1-.1.264L.48-.816a.83.83,0,0,0-.12.408A.426.426,0,0,0,.792,0Z" transform="translate(5502.724 284.942)" fill="#747474"/>
    <path id="路径_5283" data-name="路径 5283" d="M4.944,0H6.288a.481.481,0,0,0,.48-.48V-6.744l3.984-9.192a1.143,1.143,0,0,0,.12-.456.425.425,0,0,0-.432-.408H8.856a.45.45,0,0,0-.456.36L5.808-10.056c-.048.144-.1.216-.192.216s-.144-.072-.192-.216L2.832-16.44a.45.45,0,0,0-.456-.36H.792a.425.425,0,0,0-.432.408,1.143,1.143,0,0,0,.12.456L4.464-6.744V-.48A.481.481,0,0,0,4.944,0Z" transform="translate(5502.724 421.942)" fill="#747474"/>
    <path id="路径_5284" data-name="路径 5284" d="M2.28,0H6.72a4.79,4.79,0,0,0,5.04-4.9,5.024,5.024,0,0,0-1.7-3.672.314.314,0,0,1,0-.528,4.524,4.524,0,0,0,1.368-3.24A4.374,4.374,0,0,0,6.72-16.8H2.28a.481.481,0,0,0-.48.48V-.48A.481.481,0,0,0,2.28,0ZM4.272-9.888a.227.227,0,0,1-.24-.24V-14.28a.227.227,0,0,1,.24-.24H6.72a2.066,2.066,0,0,1,2.352,2.184A2.256,2.256,0,0,1,6.72-9.888Zm0,7.608a.227.227,0,0,1-.24-.24V-7.488a.215.215,0,0,1,.24-.24H6.72A2.718,2.718,0,0,1,9.408-4.9,2.537,2.537,0,0,1,6.72-2.28Z" transform="translate(5502.724 490.942)" fill="#747474"/>
    <path id="路径_5285" data-name="路径 5285" d="M.768,0H2.16a.483.483,0,0,0,.456-.36L3.672-4.032a.461.461,0,0,1,.456-.336H8.112a.442.442,0,0,1,.456.336L9.624-.36A.483.483,0,0,0,10.08,0h1.392a.38.38,0,0,0,.408-.336,1.331,1.331,0,0,0-.072-.408L7.416-16.44a.462.462,0,0,0-.456-.36H5.28a.462.462,0,0,0-.456.36L.432-.744A1.331,1.331,0,0,0,.36-.336.38.38,0,0,0,.768,0ZM4.632-6.6c-.144,0-.24-.072-.192-.264L6-13.56c.024-.1.048-.144.1-.144h.048c.048,0,.072.048.1.144l1.56,6.7c.048.192-.048.264-.192.264Z" transform="translate(5502.724 353.942)" fill="#747474"/>
    <path id="路径_4913" data-name="路径 4913" d="M0,0H222.144" transform="translate(4620.356 140.979)" fill="none" stroke="#747474" stroke-linecap="round" stroke-width="2"/>
    <path id="路径_4914" data-name="路径 4914" d="M0,0H209.144" transform="translate(4620.356 209.312)" fill="none" stroke="#747474" stroke-linecap="round" stroke-width="2"/>
    <path id="路径_4915" data-name="路径 4915" d="M0,0H192.144" transform="translate(4620.356 278.312)" fill="none" stroke="#747474" stroke-linecap="round" stroke-width="2"/>
    <path id="路径_4916" data-name="路径 4916" d="M0,0H198.144" transform="translate(4620.356 348.975)" fill="none" stroke="#747474" stroke-linecap="round" stroke-width="2"/>
    <path id="路径_4917" data-name="路径 4917" d="M0,0H276.144" transform="translate(4620.356 436.975)" fill="none" stroke="#747474" stroke-linecap="round" stroke-width="2"/>
    <path id="路径_4918" data-name="路径 4918" d="M1.44,0h8.928a.481.481,0,0,0,.48-.48V-1.752a.481.481,0,0,0-.48-.48h-6.7c-.168,0-.216-.12-.144-.24l7.08-11.736a.725.725,0,0,0,.12-.384V-16.32a.481.481,0,0,0-.48-.48H1.32a.481.481,0,0,0-.48.48v1.248a.481.481,0,0,0,.48.48H8.112c.168,0,.216.12.144.24L1.08-2.664a.725.725,0,0,0-.12.384v1.8A.481.481,0,0,0,1.44,0ZM13.968,0h7.416a.481.481,0,0,0,.48-.48V-1.8a.481.481,0,0,0-.48-.48H16.008a.227.227,0,0,1-.24-.24v-13.8a.481.481,0,0,0-.48-.48h-1.32a.481.481,0,0,0-.48.48V-.48A.481.481,0,0,0,13.968,0Z" transform="translate(4577 148.61)" fill="#747474"/>
    <path id="路径_4919" data-name="路径 4919" d="M2.28,0H9.7a.481.481,0,0,0,.48-.48V-1.8a.481.481,0,0,0-.48-.48H4.32a.227.227,0,0,1-.24-.24v-13.8a.481.481,0,0,0-.48-.48H2.28a.481.481,0,0,0-.48.48V-.48A.481.481,0,0,0,2.28,0ZM16.56.24A4.956,4.956,0,0,0,21.6-4.824a4.2,4.2,0,0,0-1.9-3.72c-.216-.144-.216-.36.024-.576a4.231,4.231,0,0,0,1.512-3.288,4.371,4.371,0,0,0-4.632-4.632,4.422,4.422,0,0,0-4.728,4.392v.6a.481.481,0,0,0,.48.48h1.3a.481.481,0,0,0,.48-.48v-.36a2.356,2.356,0,0,1,2.472-2.472,2.228,2.228,0,0,1,2.352,2.472,2.352,2.352,0,0,1-2.4,2.52h-.48a.481.481,0,0,0-.48.48v1.272a.481.481,0,0,0,.48.48h.48a2.627,2.627,0,0,1,2.76,2.832,2.685,2.685,0,0,1-2.76,2.9,2.684,2.684,0,0,1-2.784-2.832V-4.92a.481.481,0,0,0-.48-.48h-1.32a.481.481,0,0,0-.48.48v.408A4.883,4.883,0,0,0,16.56.24Z" transform="translate(4577 285.61)" fill="#747474"/>
    <path id="路径_4920" data-name="路径 4920" d="M2.28,0H9.7a.481.481,0,0,0,.48-.48V-1.8a.481.481,0,0,0-.48-.48H4.32a.227.227,0,0,1-.24-.24v-13.8a.481.481,0,0,0-.48-.48H2.28a.481.481,0,0,0-.48.48V-.48A.481.481,0,0,0,2.28,0Z" transform="translate(4581 215.942)" fill="#747474"/>
    <path id="路径_3699" data-name="路径 3699" d="M10.148,0,38.3,32.427,68.6,67.446" transform="translate(5230.548 346.683)" fill="none" stroke="#747474" stroke-linecap="round" stroke-width="2"/>
    <path id="路径_5156" data-name="路径 5156" d="M208.141,0H0" transform="translate(5277.5 277.643)" fill="none" stroke="#747474" stroke-linecap="round" stroke-width="2"/>
    <path id="路径_5263" data-name="路径 5263" d="M171.141,0H0" transform="translate(5314.5 345.975)" fill="none" stroke="#747474" stroke-linecap="round" stroke-width="2"/>
    <path id="路径_5157" data-name="路径 5157" d="M34.019,0H0" transform="translate(5206.481 345.975)" fill="none" stroke="#747474" stroke-linecap="round" stroke-width="2"/>
    <path id="路径_5158" data-name="路径 5158" d="M11,0H0" transform="translate(5194.5 438.975)" fill="none" stroke="#747474" stroke-linecap="round" stroke-width="2"/>
    <path id="路径_5159" data-name="路径 5159" d="M187.627,0H0" transform="translate(5299.5 414.306)" fill="none" stroke="#747474" stroke-linecap="round" stroke-width="2"/>
    <path id="路径_5160" data-name="路径 5160" d="M179.627,0H0" transform="translate(5307.5 482.638)" fill="none" stroke="#747474" stroke-linecap="round" stroke-width="2"/>
    <path id="路径_5161" data-name="路径 5161" d="M0,20,17,0" transform="translate(5260.5 277.5)" fill="none" stroke="#747474" stroke-linecap="round" stroke-width="2"/>
    <path id="路径_3700" data-name="路径 3700" d="M-2.008,0l59.3,67.913" transform="translate(5249.958 414.558)" fill="none" stroke="#747474" stroke-linecap="round" stroke-width="2"/>
    <path id="路径_5020" data-name="路径 5020" d="M6.768.24a5.023,5.023,0,0,0,5.4-5.424.474.474,0,0,0-.48-.432H10.344a.481.481,0,0,0-.48.48,2.851,2.851,0,0,1-3.1,3.1A2.885,2.885,0,0,1,4.056-3.672a13.859,13.859,0,0,1-.5-4.728,13.859,13.859,0,0,1,.5-4.728A2.885,2.885,0,0,1,6.768-14.76a2.851,2.851,0,0,1,3.1,3.1.481.481,0,0,0,.48.48h1.344a.474.474,0,0,0,.48-.432,5.023,5.023,0,0,0-5.4-5.424,5.1,5.1,0,0,0-4.824,2.832C1.224-12.7,1.2-10.632,1.2-8.4s.024,4.3.744,5.808A5.1,5.1,0,0,0,6.768.24ZM13.728,0H15.12a.483.483,0,0,0,.456-.36l1.056-3.672a.461.461,0,0,1,.456-.336h3.984a.442.442,0,0,1,.456.336L22.584-.36A.483.483,0,0,0,23.04,0h1.392a.38.38,0,0,0,.408-.336,1.331,1.331,0,0,0-.072-.408l-4.392-15.7a.462.462,0,0,0-.456-.36H18.24a.462.462,0,0,0-.456.36L13.392-.744a1.331,1.331,0,0,0-.072.408A.38.38,0,0,0,13.728,0Zm3.864-6.6c-.144,0-.24-.072-.192-.264l1.56-6.7c.024-.1.048-.144.1-.144H19.1c.048,0,.072.048.1.144l1.56,6.7c.048.192-.048.264-.192.264ZM27.48,0H28.8a.481.481,0,0,0,.48-.48v-6a.227.227,0,0,1,.24-.24H31.8a4.893,4.893,0,0,0,5.04-5.04A4.893,4.893,0,0,0,31.8-16.8H27.48a.481.481,0,0,0-.48.48V-.48A.481.481,0,0,0,27.48,0Zm2.04-9a.227.227,0,0,1-.24-.24v-5.04a.227.227,0,0,1,.24-.24H31.8a2.6,2.6,0,0,1,2.688,2.76A2.6,2.6,0,0,1,31.8-9ZM41.952,0h1.32a.481.481,0,0,0,.48-.48v-13.8a.227.227,0,0,1,.24-.24H47.16a.481.481,0,0,0,.48-.48v-1.32a.481.481,0,0,0-.48-.48H38.04a.481.481,0,0,0-.48.48V-15a.481.481,0,0,0,.48.48h3.192a.227.227,0,0,1,.24.24V-.48A.481.481,0,0,0,41.952,0ZM55.08.24c3.144,0,5.4-1.872,5.4-5.472V-16.32A.481.481,0,0,0,60-16.8H58.68a.481.481,0,0,0-.48.48V-4.992A2.775,2.775,0,0,1,55.08-2.04c-1.8,0-3.12-.792-3.12-2.952V-16.32a.481.481,0,0,0-.48-.48H50.16a.481.481,0,0,0-.48.48V-5.232C49.68-1.632,51.744.24,55.08.24ZM64.44,0h1.32a.481.481,0,0,0,.48-.48v-6a.227.227,0,0,1,.24-.24h1.464a.469.469,0,0,1,.456.288L71.28-.384A.621.621,0,0,0,71.856,0H73.32a.429.429,0,0,0,.48-.432.818.818,0,0,0-.1-.384L70.92-6.48a.885.885,0,0,1-.12-.408c0-.216.192-.384.5-.576a4.746,4.746,0,0,0,2.5-4.3,4.893,4.893,0,0,0-5.04-5.04H64.44a.481.481,0,0,0-.48.48V-.48A.481.481,0,0,0,64.44,0Zm2.04-9a.227.227,0,0,1-.24-.24v-5.04a.227.227,0,0,1,.24-.24h2.28a2.6,2.6,0,0,1,2.688,2.76A2.6,2.6,0,0,1,68.76-9ZM77.04,0h7.8a.481.481,0,0,0,.48-.48V-1.8a.481.481,0,0,0-.48-.48H79.08a.227.227,0,0,1-.24-.24V-7.2a.227.227,0,0,1,.24-.24h5.448a.481.481,0,0,0,.48-.48V-9.24a.481.481,0,0,0-.48-.48H79.08a.227.227,0,0,1-.24-.24v-4.32a.227.227,0,0,1,.24-.24h5.712a.481.481,0,0,0,.48-.48v-1.32a.481.481,0,0,0-.48-.48H77.04a.481.481,0,0,0-.48.48V-.48A.481.481,0,0,0,77.04,0Z" transform="translate(4963.734 602.576)" fill="#747474"/>
    <path id="路径_5082" data-name="路径 5082" d="M2.28,0H3.6a.481.481,0,0,0,.48-.48V-7.2a.227.227,0,0,1,.24-.24H9.36a.227.227,0,0,1,.24.24V-.48a.481.481,0,0,0,.48.48H11.4a.481.481,0,0,0,.48-.48V-16.32a.481.481,0,0,0-.48-.48H10.08a.481.481,0,0,0-.48.48v6.36a.227.227,0,0,1-.24.24H4.32a.227.227,0,0,1-.24-.24v-6.36a.481.481,0,0,0-.48-.48H2.28a.481.481,0,0,0-.48.48V-.48A.481.481,0,0,0,2.28,0ZM20.448.24a5.084,5.084,0,0,0,4.8-2.856c.72-1.488.768-3.552.768-5.784s-.048-4.3-.768-5.784a5.084,5.084,0,0,0-4.8-2.856,5.084,5.084,0,0,0-4.8,2.856c-.72,1.488-.768,3.552-.768,5.784s.048,4.3.768,5.784A5.084,5.084,0,0,0,20.448.24Zm0-2.28A2.884,2.884,0,0,1,17.76-3.648c-.5-.96-.528-2.976-.528-4.752s.024-3.792.528-4.752a2.884,2.884,0,0,1,2.688-1.608,2.884,2.884,0,0,1,2.688,1.608c.5.96.528,2.976.528,4.752s-.024,3.792-.528,4.752A2.884,2.884,0,0,1,20.448-2.04ZM29.5,0h1.272a.481.481,0,0,0,.48-.48V-12.528a.11.11,0,0,1,.1-.12c.048,0,.072.048.1.1L34.872-.408a.471.471,0,0,0,.5.408h1.008a.471.471,0,0,0,.5-.408L40.32-12.552c.024-.048.048-.1.1-.1a.11.11,0,0,1,.1.12V-.48a.481.481,0,0,0,.48.48h1.272a.481.481,0,0,0,.48-.48V-16.32a.481.481,0,0,0-.48-.48H39.816a.471.471,0,0,0-.5.408L36-4.32a.122.122,0,0,1-.12.1.122.122,0,0,1-.12-.1L32.448-16.392a.471.471,0,0,0-.5-.408H29.5a.481.481,0,0,0-.48.48V-.48A.481.481,0,0,0,29.5,0ZM46.824,0h7.8a.481.481,0,0,0,.48-.48V-1.8a.481.481,0,0,0-.48-.48h-5.76a.227.227,0,0,1-.24-.24V-7.2a.227.227,0,0,1,.24-.24h5.448a.481.481,0,0,0,.48-.48V-9.24a.481.481,0,0,0-.48-.48H48.864a.227.227,0,0,1-.24-.24v-4.32a.227.227,0,0,1,.24-.24h5.712a.481.481,0,0,0,.48-.48v-1.32a.481.481,0,0,0-.48-.48H46.824a.481.481,0,0,0-.48.48V-.48A.481.481,0,0,0,46.824,0Z" transform="translate(5075.734 602.576)" fill="#747474"/>
    <path id="路径_3715" data-name="路径 3715" d="M9.48,11.251,68.572,77.777" transform="translate(4832.928 129.723)" fill="none" stroke="#747474" stroke-linecap="round" stroke-width="2"/>
    <path id="路径_4973" data-name="路径 4973" d="M0,0,57,64" transform="translate(4812.5 278.5)" fill="none" stroke="#747474" stroke-linecap="round" stroke-width="2"/>
    <path id="路径_5162" data-name="路径 5162" d="M220.141,0H0" transform="translate(5265.5 140.979)" fill="none" stroke="#747474" stroke-linecap="round" stroke-width="2"/>
    <path id="路径_5163" data-name="路径 5163" d="M208.141,0H0" transform="translate(5277.5 209.312)" fill="none" stroke="#747474" stroke-linecap="round" stroke-width="2"/>
    <path id="路径_5064" data-name="路径 5064" d="M0,0V202.485" transform="translate(5007.217 364.016)" fill="none" stroke="#747474" stroke-linecap="round" stroke-width="2"/>
    <path id="路径_5021" data-name="路径 5021" d="M0,0V80.864" transform="translate(4971.217 192.636)" fill="none" stroke="#747474" stroke-linecap="round" stroke-width="2"/>
    <path id="路径_5083" data-name="路径 5083" d="M0,0V80.864" transform="translate(5137.217 192.636)" fill="none" stroke="#747474" stroke-linecap="round" stroke-width="2"/>
    <path id="路径_5084" data-name="路径 5084" d="M0,0V203" transform="translate(5102.523 363.5)" fill="none" stroke="#747474" stroke-linecap="round" stroke-width="2"/>
    <path id="路径_5164" data-name="路径 5164" d="M184.627,0H0" transform="translate(5302.5 550.638)" fill="none" stroke="#747474" stroke-linecap="round" stroke-width="2"/>
    <path id="路径_5165" data-name="路径 5165" d="M185.627,0H0" transform="translate(5301.5 618.638)" fill="none" stroke="#747474" stroke-linecap="round" stroke-width="2"/>
    <path id="路径_3701" data-name="路径 3701" d="M-2.008,0,94.1,110.7" transform="translate(5207.958 439.558)" fill="none" stroke="#747474" stroke-linecap="round" stroke-width="2"/>
    <path id="路径_3717" data-name="路径 3717" d="M-2.008,0,153.667,179.1" transform="translate(5147.958 439.558)" fill="none" stroke="#747474" stroke-linecap="round" stroke-width="2"/>
    <path id="路径_4999" data-name="路径 4999" d="M10,11,0,0" transform="translate(4829.5 209.5)" fill="none" stroke="#747474" stroke-linecap="round" stroke-width="2"/>
    <g id="switchpro" transform="translate(4531 -92)" opacity="0.5">
      <path id="路径_320" data-name="路径 320" d="M8500.714,2202.918s12,4.245,15.18,7.8l105.213,6.447,97.623-3.755s5.01-10.215,15.708-13.915l-234.754.514Z" transform="translate(-8093.422 -1897.723)" fill="none"/>
      <path id="路径_314" data-name="路径 314" d="M8751.822,2513.989s21.932-2.142,42.1,45.3,46.357,93.368,79.748,92.928,63.676-37.189,62.225-74.836-19.338-179.072-31.889-223.959c0,0-16.689-88.765-26.971-96.477a140.5,140.5,0,0,0-18.895-11.342s-14.1-31.965-47.705-41.2-79.551-19.585-111.709,2.591" transform="translate(-8078.693 -1891.221)" fill="none" stroke="#747474" stroke-width="4"/>
      <g id="联合_3" data-name="联合 3" transform="translate(369.491 477.677)" fill="none">
        <path d="M36.616,100.176a4,4,0,0,1-4-4V67.561H4a4,4,0,0,1-4-4V36.616a4,4,0,0,1,4-4H32.616V4a4,4,0,0,1,4-4H63.561a4,4,0,0,1,4,4V32.616H96.177a4,4,0,0,1,4,4V63.561a4,4,0,0,1-4,4H67.561V96.177a4,4,0,0,1-4,4Z" stroke="none"/>
        <path d="M 63.56070709228516 98.17630767822266 C 64.66379547119141 98.17630767822266 65.56121063232422 97.27928924560547 65.56121063232422 96.17670440673828 L 65.56121063232422 67.56121063232422 L 65.56121063232422 65.56121063232422 L 67.56121063232422 65.56121063232422 L 96.17670440673828 65.56121063232422 C 97.27928924560547 65.56121063232422 98.17630767822266 64.66379547119141 98.17630767822266 63.56070709228516 L 98.17630767822266 36.61560821533203 C 98.17630767822266 35.51301956176758 97.27928924560547 34.61600875854492 96.17670440673828 34.61600875854492 L 67.56121063232422 34.61600875854492 L 65.56121063232422 34.61600875854492 L 65.56121063232422 32.61600875854492 L 65.56121063232422 4.000507354736328 C 65.56121063232422 2.897421360015869 64.66379547119141 2.000007152557373 63.56070709228516 2.000007152557373 L 36.61560821533203 2.000007152557373 C 35.51301956176758 2.000007152557373 34.61600875854492 2.897421360015869 34.61600875854492 4.000507354736328 L 34.61600875854492 32.61600875854492 L 34.61600875854492 34.61600875854492 L 32.61600875854492 34.61600875854492 L 3.999607086181641 34.61600875854492 C 2.897021532058716 34.61600875854492 2.000007152557373 35.51301956176758 2.000007152557373 36.61560821533203 L 2.000007152557373 63.56070709228516 C 2.000007152557373 64.66379547119141 2.897021532058716 65.56121063232422 3.999607086181641 65.56121063232422 L 32.61600875854492 65.56121063232422 L 34.61600875854492 65.56121063232422 L 34.61600875854492 67.56121063232422 L 34.61600875854492 96.17670440673828 C 34.61600875854492 97.27928924560547 35.51301956176758 98.17630767822266 36.61560821533203 98.17630767822266 L 63.56070709228516 98.17630767822266 M 63.56070709228516 100.1763076782227 L 36.61560821533203 100.1763076782227 C 34.40610885620117 100.1763076782227 32.61600875854492 98.38530731201172 32.61600875854492 96.17670440673828 L 32.61600875854492 67.56121063232422 L 3.999607086181641 67.56121063232422 C 1.791007161140442 67.56121063232422 7.167271178332157e-06 65.77021026611328 7.167271178332157e-06 63.56070709228516 L 7.167271178332157e-06 36.61560821533203 C 7.167271178332157e-06 34.40610885620117 1.791007161140442 32.61600875854492 3.999607086181641 32.61600875854492 L 32.61600875854492 32.61600875854492 L 32.61600875854492 4.000507354736328 C 32.61600875854492 1.791007161140442 34.40610885620117 7.167271178332157e-06 36.61560821533203 7.167271178332157e-06 L 63.56070709228516 7.167271178332157e-06 C 65.77021026611328 7.167271178332157e-06 67.56121063232422 1.791007161140442 67.56121063232422 4.000507354736328 L 67.56121063232422 32.61600875854492 L 96.17670440673828 32.61600875854492 C 98.38530731201172 32.61600875854492 100.1763076782227 34.40610885620117 100.1763076782227 36.61560821533203 L 100.1763076782227 63.56070709228516 C 100.1763076782227 65.77021026611328 98.38530731201172 67.56121063232422 96.17670440673828 67.56121063232422 L 67.56121063232422 67.56121063232422 L 67.56121063232422 96.17670440673828 C 67.56121063232422 98.38530731201172 65.77021026611328 100.1763076782227 63.56070709228516 100.1763076782227 Z" stroke="none" fill="#747474"/>
      </g>
      <g id="矩形_290" data-name="矩形 290" transform="translate(460.348 419.725)" fill="none" stroke="#747474" stroke-width="2">
        <rect width="32.616" height="32.616" rx="3" stroke="none"/>
        <rect x="1" y="1" width="30.616" height="30.616" rx="2" fill="none"/>
      </g>
      <g id="椭圆_207" data-name="椭圆 207" transform="translate(555.865 421.119)" fill="none" stroke="#747474" stroke-width="2">
        <circle cx="15.143" cy="15.143" r="15.143" stroke="none"/>
        <circle cx="15.143" cy="15.143" r="14.143" fill="none"/>
      </g>
      <g id="组_755" data-name="组 755" transform="translate(423.073 368.182)">
        <g id="椭圆_209" data-name="椭圆 209" fill="none" stroke="#747474" stroke-width="2">
          <circle cx="17.473" cy="17.473" r="17.473" stroke="none"/>
          <circle cx="17.473" cy="17.473" r="16.473" fill="none"/>
        </g>
      </g>
      <g id="椭圆_209-2" data-name="椭圆 209" transform="translate(588.481 368.182)" fill="none" stroke="#747474" stroke-width="2">
        <circle cx="17.473" cy="17.473" r="17.473" stroke="none"/>
        <circle cx="17.473" cy="17.473" r="16.473" fill="none"/>
      </g>
      <g id="椭圆_210" data-name="椭圆 210" transform="translate(674.679 363.523)" fill="none" stroke="#747474" stroke-width="3">
        <circle cx="25.627" cy="25.627" r="25.627" stroke="none"/>
        <circle cx="25.627" cy="25.627" r="24.127" fill="none"/>
      </g>
      <g id="椭圆_212" data-name="椭圆 212" transform="translate(728.262 410.117)" fill="none" stroke="#747474" stroke-width="3">
        <circle cx="25.627" cy="25.627" r="25.627" stroke="none"/>
        <circle cx="25.627" cy="25.627" r="24.127" fill="none"/>
      </g>
      <g id="椭圆_213" data-name="椭圆 213" transform="translate(674.679 456.71)" fill="none" stroke="#747474" stroke-width="3">
        <circle cx="25.627" cy="25.627" r="25.627" stroke="none"/>
        <circle cx="25.627" cy="25.627" r="24.127" fill="none"/>
      </g>
      <g id="椭圆_211" data-name="椭圆 211" transform="translate(621.096 410.117)" fill="none" stroke="#747474" stroke-width="3">
        <circle cx="25.627" cy="25.627" r="25.627" stroke="none"/>
        <circle cx="25.627" cy="25.627" r="24.127" fill="none"/>
      </g>
      <g id="椭圆_217" data-name="椭圆 217" transform="translate(314.19 410.728)" fill="none" stroke="#747474" stroke-width="1">
        <circle cx="25.015" cy="25.015" r="25.015" stroke="none"/>
        <circle cx="25.015" cy="25.015" r="24.515" fill="none"/>
      </g>
      <g id="椭圆_2206" data-name="椭圆 2206" transform="translate(586.763 503.915)" fill="none" stroke="#747474" stroke-width="1">
        <circle cx="25.015" cy="25.015" r="25.015" stroke="none"/>
        <circle cx="25.015" cy="25.015" r="24.515" fill="none"/>
      </g>
      <g id="椭圆_2189" data-name="椭圆 2189" transform="translate(564.872 481.806)" fill="none" stroke="#747474" stroke-width="4">
        <circle cx="47.522" cy="47.522" r="47.522" stroke="none"/>
        <circle cx="47.522" cy="47.522" r="45.522" fill="none"/>
      </g>
      <g id="椭圆_2207" data-name="椭圆 2207" transform="translate(291.618 388.246)" fill="none" stroke="#747474" stroke-width="4">
        <circle cx="47.522" cy="47.522" r="47.522" stroke="none"/>
        <circle cx="47.522" cy="47.522" r="45.522" fill="none"/>
      </g>
      <path id="路径_3403" data-name="路径 3403" d="M9016.691,2513.989c-22.562.286-300.283,0-300.283,0s-21.932-2.142-42.1,45.3-46.357,93.368-79.748,92.928-63.676-37.189-62.225-74.836,19.338-179.072,31.887-223.959c0,0,16.691-88.765,26.973-96.477a140.5,140.5,0,0,1,18.895-11.342s14.1-31.965,47.705-41.2,79.551-19.585,111.709,2.591c101.672-.572,194.631.117,194.631.117" transform="translate(-8343.586 -1891.221)" fill="none" stroke="#747474" stroke-width="4"/>
    </g>
    <path id="路径_3716" data-name="路径 3716" d="M68.572,11.251,9.48,77.777" transform="translate(5196.021 129.723)" fill="none" stroke="#747474" stroke-linecap="round" stroke-width="2"/>
    <path id="路径_5203" data-name="路径 5203" d="M0,11,10,0" transform="translate(5267.5 209.5)" fill="none" stroke="#747474" stroke-linecap="round" stroke-width="2"/>
    <path id="路径_4907" data-name="路径 4907" d="M2.28,0H6.72a4.976,4.976,0,0,0,4.656-2.76c.624-1.3.672-3.408.672-5.64s-.048-4.344-.672-5.64A4.976,4.976,0,0,0,6.72-16.8H2.28a.481.481,0,0,0-.48.48V-.48A.481.481,0,0,0,2.28,0ZM4.32-2.28a.227.227,0,0,1-.24-.24V-14.28a.227.227,0,0,1,.24-.24h2.4a2.861,2.861,0,0,1,2.5,1.464c.456.864.48,2.88.48,4.656s-.024,3.792-.48,4.656A2.861,2.861,0,0,1,6.72-2.28ZM15.048-5.544H20.88a.481.481,0,0,0,.48-.48v-1.2a.481.481,0,0,0-.48-.48H15.048a.481.481,0,0,0-.48.48v1.2A.481.481,0,0,0,15.048-5.544Zm14.112-6.7c-1.944,0-2.3.912-2.808.912-.192,0-.336-.12-.48-.5-.048-.12-.144-.168-.336-.168H24.72a.481.481,0,0,0-.48.48V4.32a.481.481,0,0,0,.48.48h1.2a.481.481,0,0,0,.48-.48V.24c0-.552.12-.768.432-.768.432,0,.936.768,2.52.768A4.051,4.051,0,0,0,33.024-1.8,8.5,8.5,0,0,0,33.792-6a9.5,9.5,0,0,0-.744-4.176A4.115,4.115,0,0,0,29.16-12.24Zm-.216,2.16a2.423,2.423,0,0,1,2.256,1.1A6.036,6.036,0,0,1,31.632-6,6.328,6.328,0,0,1,31.2-3.024a2.4,2.4,0,0,1-2.256,1.1,2.423,2.423,0,0,1-2.256-1.1A6.036,6.036,0,0,1,26.256-6a6.036,6.036,0,0,1,.432-2.976A2.423,2.423,0,0,1,28.944-10.08ZM40.248.24c1.776,0,2.376-.912,2.808-.912.24,0,.36.288.48.5A.363.363,0,0,0,43.872,0h.816a.481.481,0,0,0,.48-.48V-8.4c0-2.52-1.512-3.84-4.368-3.84-2.76,0-4.368,1.272-4.368,3.432a.431.431,0,0,0,.48.48h1.1c.384,0,.552-.12.552-.408,0-1.032.816-1.608,2.208-1.608,1.44,0,2.232.648,2.232,1.872v.984a.227.227,0,0,1-.24.24H40.2c-2.736,0-4.32,1.272-4.32,3.672C35.88-1.272,37.608.24,40.248.24Zm.168-1.992c-1.512,0-2.3-.648-2.3-1.872,0-1.128.744-1.656,2.328-1.656h2.52a.227.227,0,0,1,.24.24v.768C43.2-2.568,42.312-1.752,40.416-1.752ZM52.368.24c1.944,0,2.3-.912,2.808-.912.192,0,.312.12.48.5.048.12.144.168.336.168h.816a.481.481,0,0,0,.48-.48V-16.56a.481.481,0,0,0-.48-.48h-1.2a.481.481,0,0,0-.48.48v4.32c0,.552-.12.768-.432.768-.432,0-.936-.768-2.52-.768A4.051,4.051,0,0,0,48.5-10.2,8.784,8.784,0,0,0,47.736-6a9.5,9.5,0,0,0,.744,4.176A4.236,4.236,0,0,0,52.368.24Zm.216-2.16a2.423,2.423,0,0,1-2.256-1.1A6.036,6.036,0,0,1,49.9-6a6.328,6.328,0,0,1,.432-2.976,2.4,2.4,0,0,1,2.256-1.1,2.423,2.423,0,0,1,2.256,1.1A6.036,6.036,0,0,1,55.272-6a6.036,6.036,0,0,1-.432,2.976A2.423,2.423,0,0,1,52.584-1.92Z" transform="translate(4542.734 444.576)" fill="#747474"/>
    <path id="路径_4908" data-name="路径 4908" d="M-65.9,0h7.416a.481.481,0,0,0,.48-.48V-1.8a.481.481,0,0,0-.48-.48h-5.376a.227.227,0,0,1-.24-.24v-13.8a.481.481,0,0,0-.48-.48H-65.9a.481.481,0,0,0-.48.48V-.48A.481.481,0,0,0-65.9,0Zm8.856-5.544h5.832a.481.481,0,0,0,.48-.48v-1.2a.481.481,0,0,0-.48-.48h-5.832a.481.481,0,0,0-.48.48v1.2A.481.481,0,0,0-57.048-5.544ZM-43.128.24c3.168,0,5.352-1.968,5.352-4.848a5.057,5.057,0,0,0-4.2-5.04c-2.808-.624-3.792-1.392-3.792-2.88,0-1.368,1.032-2.232,2.736-2.232s2.736.84,2.736,2.28v.312a.481.481,0,0,0,.48.48h1.32a.481.481,0,0,0,.48-.48v-.312c0-2.832-1.9-4.56-4.968-4.56-2.952,0-5.136,1.7-5.136,4.56,0,2.616,1.68,4.176,4.512,4.824,2.472.576,3.48,1.488,3.48,3.144,0,1.464-1.224,2.472-2.976,2.472-1.872,0-3.168-1.128-3.168-2.76v-.384a.481.481,0,0,0-.48-.48H-48.1a.481.481,0,0,0-.48.48V-4.8C-48.576-1.752-46.416.24-43.128.24ZM-30.1,0h1.32a.481.481,0,0,0,.48-.48v-1.2a.481.481,0,0,0-.48-.48H-30.1c-1.3,0-1.92-.528-1.92-1.68V-9.48a.227.227,0,0,1,.24-.24h2.76a.481.481,0,0,0,.48-.48v-1.2a.481.481,0,0,0-.48-.48h-2.76a.227.227,0,0,1-.24-.24v-3.72a.481.481,0,0,0-.48-.48h-1.2a.481.481,0,0,0-.48.48v3.72a.227.227,0,0,1-.24.24H-36.1a.481.481,0,0,0-.48.48v1.2a.481.481,0,0,0,.48.48h1.68a.227.227,0,0,1,.24.24v5.64C-34.176-1.3-32.808,0-30.1,0Zm4.128-14.616h1.632A.379.379,0,0,0-23.952-15v-1.656a.4.4,0,0,0-.384-.384h-1.632a.4.4,0,0,0-.384.384V-15A.379.379,0,0,0-25.968-14.616ZM-25.776,0h1.248a.481.481,0,0,0,.48-.48V-11.52a.481.481,0,0,0-.48-.48h-1.248a.481.481,0,0,0-.48.48V-.48A.481.481,0,0,0-25.776,0Zm9.456.24a4.867,4.867,0,0,0,3.048-.96,3.929,3.929,0,0,0,1.464-3.12c0-.312-.12-.48-.36-.48h-1.368c-.288,0-.456.144-.456.408a1.861,1.861,0,0,1-.648,1.464,2.75,2.75,0,0,1-1.68.528,2.7,2.7,0,0,1-2.208-.96,5.163,5.163,0,0,1-.6-3.12c0-1.68.12-2.52.624-3.192a2.7,2.7,0,0,1,2.16-.888,2.524,2.524,0,0,1,1.608.5,1.912,1.912,0,0,1,.72,1.512.415.415,0,0,0,.456.384h1.272a.426.426,0,0,0,.408-.48,4.06,4.06,0,0,0-1.32-3,4.71,4.71,0,0,0-3.144-1.08A5,5,0,0,0-19.9-10.92C-21.1-9.672-21.36-8.064-21.36-6c0,1.992.192,3.768,1.512,4.968A4.984,4.984,0,0,0-16.32.24ZM-.5-.84-5.112-6a.375.375,0,0,1,0-.576L-.648-11.16a.51.51,0,0,0,.168-.36.472.472,0,0,0-.5-.48H-2.4a1.047,1.047,0,0,0-.6.36L-6.84-7.632c-.1.1-.144.12-.192.12-.072,0-.12-.048-.12-.168v-8.88a.481.481,0,0,0-.48-.48h-1.2a.481.481,0,0,0-.48.48V-.48a.481.481,0,0,0,.48.48h1.2a.481.481,0,0,0,.48-.48v-4.2c0-.12.048-.168.12-.168.048,0,.1.024.192.12l3.768,4.3a.98.98,0,0,0,.7.432H-.84a.473.473,0,0,0,.5-.48A.464.464,0,0,0-.5-.84Z" transform="translate(4601.734 356.576)" fill="#747474"/>
    <path id="路径_5370" data-name="路径 5370" d="M2.28,0H3.6a.481.481,0,0,0,.48-.48v-6a.227.227,0,0,1,.24-.24H5.784a.469.469,0,0,1,.456.288L9.12-.384A.621.621,0,0,0,9.7,0H11.16a.429.429,0,0,0,.48-.432.818.818,0,0,0-.1-.384L8.76-6.48a.885.885,0,0,1-.12-.408c0-.216.192-.384.5-.576a4.746,4.746,0,0,0,2.5-4.3A4.893,4.893,0,0,0,6.6-16.8H2.28a.481.481,0,0,0-.48.48V-.48A.481.481,0,0,0,2.28,0ZM4.32-9a.227.227,0,0,1-.24-.24v-5.04a.227.227,0,0,1,.24-.24H6.6a2.6,2.6,0,0,1,2.688,2.76A2.6,2.6,0,0,1,6.6-9ZM13.2-5.544h5.832a.481.481,0,0,0,.48-.48v-1.2a.481.481,0,0,0-.48-.48H13.2a.481.481,0,0,0-.48.48v1.2A.481.481,0,0,0,13.2-5.544ZM27.12.24c3.168,0,5.352-1.968,5.352-4.848a5.057,5.057,0,0,0-4.2-5.04c-2.808-.624-3.792-1.392-3.792-2.88,0-1.368,1.032-2.232,2.736-2.232s2.736.84,2.736,2.28v.312a.481.481,0,0,0,.48.48h1.32a.481.481,0,0,0,.48-.48v-.312c0-2.832-1.9-4.56-4.968-4.56-2.952,0-5.136,1.7-5.136,4.56,0,2.616,1.68,4.176,4.512,4.824,2.472.576,3.48,1.488,3.48,3.144,0,1.464-1.224,2.472-2.976,2.472-1.872,0-3.168-1.128-3.168-2.76v-.384a.481.481,0,0,0-.48-.48H22.152a.481.481,0,0,0-.48.48V-4.8C21.672-1.752,23.832.24,27.12.24ZM40.152,0h1.32a.481.481,0,0,0,.48-.48v-1.2a.481.481,0,0,0-.48-.48h-1.32c-1.3,0-1.92-.528-1.92-1.68V-9.48a.227.227,0,0,1,.24-.24h2.76a.481.481,0,0,0,.48-.48v-1.2a.481.481,0,0,0-.48-.48h-2.76a.227.227,0,0,1-.24-.24v-3.72a.481.481,0,0,0-.48-.48h-1.2a.481.481,0,0,0-.48.48v3.72a.227.227,0,0,1-.24.24h-1.68a.481.481,0,0,0-.48.48v1.2a.481.481,0,0,0,.48.48h1.68a.227.227,0,0,1,.24.24v5.64C36.072-1.3,37.44,0,40.152,0ZM44.28-14.616h1.632A.379.379,0,0,0,46.3-15v-1.656a.4.4,0,0,0-.384-.384H44.28a.4.4,0,0,0-.384.384V-15A.379.379,0,0,0,44.28-14.616ZM44.472,0H45.72a.481.481,0,0,0,.48-.48V-11.52a.481.481,0,0,0-.48-.48H44.472a.481.481,0,0,0-.48.48V-.48A.481.481,0,0,0,44.472,0Zm9.456.24a4.867,4.867,0,0,0,3.048-.96A3.929,3.929,0,0,0,58.44-3.84c0-.312-.12-.48-.36-.48H56.712c-.288,0-.456.144-.456.408a1.861,1.861,0,0,1-.648,1.464,2.75,2.75,0,0,1-1.68.528,2.7,2.7,0,0,1-2.208-.96A5.163,5.163,0,0,1,51.12-6c0-1.68.12-2.52.624-3.192a2.7,2.7,0,0,1,2.16-.888,2.524,2.524,0,0,1,1.608.5,1.912,1.912,0,0,1,.72,1.512.415.415,0,0,0,.456.384H57.96a.426.426,0,0,0,.408-.48,4.06,4.06,0,0,0-1.32-3A4.71,4.71,0,0,0,53.9-12.24a5,5,0,0,0-3.552,1.32c-1.2,1.248-1.464,2.856-1.464,4.92,0,1.992.192,3.768,1.512,4.968A4.984,4.984,0,0,0,53.928.24ZM69.744-.84,65.136-6a.375.375,0,0,1,0-.576L69.6-11.16a.51.51,0,0,0,.168-.36.472.472,0,0,0-.5-.48H67.848a1.047,1.047,0,0,0-.6.36l-3.84,4.008c-.1.1-.144.12-.192.12-.072,0-.12-.048-.12-.168v-8.88a.481.481,0,0,0-.48-.48h-1.2a.481.481,0,0,0-.48.48V-.48a.481.481,0,0,0,.48.48h1.2a.481.481,0,0,0,.48-.48v-4.2c0-.12.048-.168.12-.168.048,0,.1.024.192.12l3.768,4.3a.98.98,0,0,0,.7.432h1.536a.473.473,0,0,0,.5-.48A.464.464,0,0,0,69.744-.84Z" transform="translate(5499.734 557.576)" fill="#747474"/>
    <path id="路径_5061" data-name="路径 5061" d="M1.8-5.544H7.632a.481.481,0,0,0,.48-.48v-1.2a.481.481,0,0,0-.48-.48H1.8a.481.481,0,0,0-.48.48v1.2A.481.481,0,0,0,1.8-5.544ZM16.632,0h4.44a4.79,4.79,0,0,0,5.04-4.9,5.024,5.024,0,0,0-1.7-3.672.314.314,0,0,1,0-.528,4.524,4.524,0,0,0,1.368-3.24,4.374,4.374,0,0,0-4.7-4.464h-4.44a.481.481,0,0,0-.48.48V-.48A.481.481,0,0,0,16.632,0Zm1.992-9.888a.227.227,0,0,1-.24-.24V-14.28a.227.227,0,0,1,.24-.24h2.448a2.066,2.066,0,0,1,2.352,2.184,2.256,2.256,0,0,1-2.352,2.448Zm0,7.608a.227.227,0,0,1-.24-.24V-7.488a.215.215,0,0,1,.24-.24h2.448A2.718,2.718,0,0,1,23.76-4.9,2.537,2.537,0,0,1,21.072-2.28ZM37.632-12h-1.2a.481.481,0,0,0-.48.48V-4.7a2.585,2.585,0,0,1-2.64,2.784c-1.728,0-2.64-1.128-2.64-2.9v-6.7a.481.481,0,0,0-.48-.48h-1.2a.481.481,0,0,0-.48.48v7.464c0,2.568,1.536,4.3,4.08,4.3,2.16,0,2.5-.96,3.024-.96.384,0,.456.312.624.552A.363.363,0,0,0,36.576,0h1.056a.481.481,0,0,0,.48-.48V-11.52A.481.481,0,0,0,37.632-12Zm8.88,12h1.32a.481.481,0,0,0,.48-.48v-1.2a.481.481,0,0,0-.48-.48h-1.32c-1.3,0-1.92-.528-1.92-1.68V-9.48a.227.227,0,0,1,.24-.24h2.76a.481.481,0,0,0,.48-.48v-1.2a.481.481,0,0,0-.48-.48h-2.76a.227.227,0,0,1-.24-.24v-3.72a.481.481,0,0,0-.48-.48h-1.2a.481.481,0,0,0-.48.48v3.72a.227.227,0,0,1-.24.24h-1.68a.481.481,0,0,0-.48.48v1.2a.481.481,0,0,0,.48.48h1.68a.227.227,0,0,1,.24.24v5.64C42.432-1.3,43.8,0,46.512,0Zm9.12,0h1.32a.481.481,0,0,0,.48-.48v-1.2a.481.481,0,0,0-.48-.48h-1.32c-1.3,0-1.92-.528-1.92-1.68V-9.48a.227.227,0,0,1,.24-.24h2.76a.481.481,0,0,0,.48-.48v-1.2a.481.481,0,0,0-.48-.48h-2.76a.227.227,0,0,1-.24-.24v-3.72a.481.481,0,0,0-.48-.48h-1.2a.481.481,0,0,0-.48.48v3.72a.227.227,0,0,1-.24.24h-1.68a.481.481,0,0,0-.48.48v1.2a.481.481,0,0,0,.48.48h1.68a.227.227,0,0,1,.24.24v5.64C51.552-1.3,52.92,0,55.632,0Zm7.944.24a4.671,4.671,0,0,0,4.08-1.992A7.189,7.189,0,0,0,68.544-6a7.189,7.189,0,0,0-.888-4.248,4.671,4.671,0,0,0-4.08-1.992,4.671,4.671,0,0,0-4.08,1.992A7.189,7.189,0,0,0,58.608-6,7.189,7.189,0,0,0,59.5-1.752,4.671,4.671,0,0,0,63.576.24Zm0-2.16a2.6,2.6,0,0,1-2.208-1.128A5.354,5.354,0,0,1,60.84-6a5.354,5.354,0,0,1,.528-2.952,2.6,2.6,0,0,1,2.208-1.128,2.6,2.6,0,0,1,2.208,1.128A5.354,5.354,0,0,1,66.312-6a5.354,5.354,0,0,1-.528,2.952A2.6,2.6,0,0,1,63.576-1.92ZM71.712,0h1.2a.481.481,0,0,0,.48-.48V-7.3a2.585,2.585,0,0,1,2.64-2.784c1.728,0,2.64,1.128,2.64,2.9v6.7a.481.481,0,0,0,.48.48h1.2a.481.481,0,0,0,.48-.48V-7.944c0-2.568-1.536-4.3-4.08-4.3-2.16,0-2.5.96-3.024.96-.384,0-.456-.312-.624-.552A.363.363,0,0,0,72.768-12H71.712a.481.481,0,0,0-.48.48V-.48A.481.481,0,0,0,71.712,0Z" transform="translate(4929.734 175.576)" fill="#747474"/>
    <path id="路径_5155" data-name="路径 5155" d="M5.856-.72H7.1a.481.481,0,0,0,.48-.48V-4.656a.227.227,0,0,1,.24-.24H11.28a.481.481,0,0,0,.48-.48V-6.624a.481.481,0,0,0-.48-.48H7.824a.227.227,0,0,1-.24-.24V-10.8a.481.481,0,0,0-.48-.48H5.856a.481.481,0,0,0-.48.48v3.456a.227.227,0,0,1-.24.24H1.68a.481.481,0,0,0-.48.48v1.248a.481.481,0,0,0,.48.48H5.136a.227.227,0,0,1,.24.24V-1.2A.481.481,0,0,0,5.856-.72ZM20.16,0H24.6a4.79,4.79,0,0,0,5.04-4.9,5.024,5.024,0,0,0-1.7-3.672.314.314,0,0,1,0-.528,4.524,4.524,0,0,0,1.368-3.24A4.374,4.374,0,0,0,24.6-16.8H20.16a.481.481,0,0,0-.48.48V-.48A.481.481,0,0,0,20.16,0Zm1.992-9.888a.227.227,0,0,1-.24-.24V-14.28a.227.227,0,0,1,.24-.24H24.6a2.066,2.066,0,0,1,2.352,2.184A2.256,2.256,0,0,1,24.6-9.888Zm0,7.608a.227.227,0,0,1-.24-.24V-7.488a.215.215,0,0,1,.24-.24H24.6A2.718,2.718,0,0,1,27.288-4.9,2.537,2.537,0,0,1,24.6-2.28ZM41.16-12h-1.2a.481.481,0,0,0-.48.48V-4.7A2.585,2.585,0,0,1,36.84-1.92c-1.728,0-2.64-1.128-2.64-2.9v-6.7a.481.481,0,0,0-.48-.48h-1.2a.481.481,0,0,0-.48.48v7.464c0,2.568,1.536,4.3,4.08,4.3,2.16,0,2.5-.96,3.024-.96.384,0,.456.312.624.552A.363.363,0,0,0,40.1,0H41.16a.481.481,0,0,0,.48-.48V-11.52A.481.481,0,0,0,41.16-12ZM50.04,0h1.32a.481.481,0,0,0,.48-.48v-1.2a.481.481,0,0,0-.48-.48H50.04c-1.3,0-1.92-.528-1.92-1.68V-9.48a.227.227,0,0,1,.24-.24h2.76a.481.481,0,0,0,.48-.48v-1.2a.481.481,0,0,0-.48-.48H48.36a.227.227,0,0,1-.24-.24v-3.72a.481.481,0,0,0-.48-.48h-1.2a.481.481,0,0,0-.48.48v3.72a.227.227,0,0,1-.24.24H44.04a.481.481,0,0,0-.48.48v1.2a.481.481,0,0,0,.48.48h1.68a.227.227,0,0,1,.24.24v5.64C45.96-1.3,47.328,0,50.04,0Zm9.12,0h1.32a.481.481,0,0,0,.48-.48v-1.2a.481.481,0,0,0-.48-.48H59.16c-1.3,0-1.92-.528-1.92-1.68V-9.48a.227.227,0,0,1,.24-.24h2.76a.481.481,0,0,0,.48-.48v-1.2a.481.481,0,0,0-.48-.48H57.48a.227.227,0,0,1-.24-.24v-3.72a.481.481,0,0,0-.48-.48h-1.2a.481.481,0,0,0-.48.48v3.72a.227.227,0,0,1-.24.24H53.16a.481.481,0,0,0-.48.48v1.2a.481.481,0,0,0,.48.48h1.68a.227.227,0,0,1,.24.24v5.64C55.08-1.3,56.448,0,59.16,0ZM67.1.24a4.671,4.671,0,0,0,4.08-1.992A7.189,7.189,0,0,0,72.072-6a7.189,7.189,0,0,0-.888-4.248A4.671,4.671,0,0,0,67.1-12.24a4.671,4.671,0,0,0-4.08,1.992A7.189,7.189,0,0,0,62.136-6a7.189,7.189,0,0,0,.888,4.248A4.671,4.671,0,0,0,67.1.24Zm0-2.16A2.6,2.6,0,0,1,64.9-3.048,5.354,5.354,0,0,1,64.368-6,5.354,5.354,0,0,1,64.9-8.952,2.6,2.6,0,0,1,67.1-10.08a2.6,2.6,0,0,1,2.208,1.128A5.354,5.354,0,0,1,69.84-6a5.354,5.354,0,0,1-.528,2.952A2.6,2.6,0,0,1,67.1-1.92ZM75.24,0h1.2a.481.481,0,0,0,.48-.48V-7.3a2.585,2.585,0,0,1,2.64-2.784c1.728,0,2.64,1.128,2.64,2.9v6.7a.481.481,0,0,0,.48.48h1.2a.481.481,0,0,0,.48-.48V-7.944c0-2.568-1.536-4.3-4.08-4.3-2.16,0-2.5.96-3.024.96-.384,0-.456-.312-.624-.552A.363.363,0,0,0,76.3-12H75.24a.481.481,0,0,0-.48.48V-.48A.481.481,0,0,0,75.24,0Z" transform="translate(5093.734 175.576)" fill="#747474"/>
  </g>
</svg>
